<?xml version="1.0" encoding="utf-8"?>
<!-- Generator: Adobe Illustrator 24.1.0, SVG Export Plug-In . SVG Version: 6.00 Build 0)  -->
<svg version="1.1" id="Calque_1" xmlns="http://www.w3.org/2000/svg" xmlns:xlink="http://www.w3.org/1999/xlink" x="0px" y="0px"
	 viewBox="0 0 252.63 214.64" style="enable-background:new 0 0 252.63 214.64;" xml:space="preserve">
<style type="text/css">
	.st0{fill:#FDC500;}
	.st1{fill:#417BA6;}
</style>
<g>
	<path class="st0" d="M145.87,130.59c-1.38-2.11-2.68-4.27-4.07-6.51c-0.74,0.54-1.45,1.01-2.11,1.53
		c-4.06,3.21-7.17,7.21-9.75,11.65c-2.4,4.12-4.19,8.51-5.59,13.05c2.07,2.68,4.57,5,7.4,6.85c4.71-8.29,9.42-16.58,14.15-24.86
		C146.27,131.66,146.28,131.22,145.87,130.59z"/>
	<path class="st0" d="M137.15,152.36c-1.15,2.02-2.29,4.02-3.42,6.02c4.23,2.31,9.07,3.63,14.21,3.63c5.41,0,10.47-1.47,14.85-4.01
		C153.6,159.63,145.12,157.47,137.15,152.36z"/>
	<path class="st0" d="M131.08,131.25c1.91-2.56,4.02-4.93,6.52-6.94c0.95-0.76,1.95-1.46,2.96-2.21c-1.7-2.72-3.4-5.46-5.19-8.33
		c-1.03,0.69-2.07,1.29-3.02,2.03c-3.68,2.85-6.4,6.52-8.78,10.46c-2.03,3.38-3.68,6.94-5.12,10.59c0.68,4.03,2.14,7.78,4.23,11.09
		c0.86-2.58,1.82-5.11,2.98-7.56C127.19,137.17,128.96,134.1,131.08,131.25z"/>
	<path class="st0" d="M143.39,142.21c-0.39-0.17-0.5-0.01-0.66,0.27c-1.39,2.45-2.77,4.9-4.18,7.33c-0.24,0.42-0.15,0.6,0.22,0.84
		c2.43,1.57,4.99,2.87,7.73,3.81c7.38,2.55,14.61,2.42,21.68-0.47c3.2-2.98,5.77-6.63,7.46-10.76c-4.48,1.61-9.09,2.54-13.86,2.64
		C155.38,146.01,149.23,144.85,143.39,142.21z"/>
	<path class="st0" d="M177.81,129.9c-0.65-11.28-7.39-20.89-16.95-25.53c5.4,7.8,9.56,16.08,10.95,25.59
		C173.82,129.95,175.81,129.92,177.81,129.9z"/>
	<path class="st0" d="M125.81,118.98c2.09-2.54,4.42-4.82,7.27-6.52c0.34-0.21,0.7-0.39,1.09-0.61c-1.06-1.71-2.12-3.41-3.18-5.12
		c-7.84,5.47-12.99,14.6-12.99,24.97c0,0.12,0.02,0.23,0.02,0.35c0.32-0.72,0.63-1.46,0.97-2.17
		C120.86,126,123.06,122.32,125.81,118.98z"/>
	<path class="st0" d="M169.4,129.99c-0.03-0.24-0.05-0.42-0.07-0.61c-0.54-3.66-1.65-7.17-3.07-10.57
		c-2.41-5.82-5.68-11.13-9.52-16.09c-2.78-0.87-5.74-1.34-8.8-1.34c-0.63,0-1.24,0.06-1.85,0.09c6.92,8.44,11.54,17.91,13.68,28.63
		C162.96,130.07,166.16,130.03,169.4,129.99z"/>
	<path class="st0" d="M148.18,129.92c0.1,0.16,0.37,0.29,0.55,0.29c1.75,0.01,3.51-0.02,5.26-0.04c1.12-0.01,2.24-0.03,3.35-0.05
		c0.01-0.09,0.03-0.12,0.02-0.15c-0.12-0.58-0.24-1.17-0.38-1.75c-1.73-7.12-4.64-13.73-8.64-19.86c-1.51-2.32-3.21-4.5-5.03-6.58
		c-3.73,0.59-7.24,1.87-10.38,3.72c2.2,3.53,4.41,7.07,6.61,10.6C142.42,120.71,145.29,125.32,148.18,129.92z"/>
	<path class="st0" d="M174.53,132.24c-8.55,0.1-17.1,0.2-25.65,0.28c-0.37,0-0.58,0.12-0.76,0.44c-1.22,2.19-2.47,4.36-3.71,6.54
		c-0.08,0.14-0.16,0.29-0.27,0.48c0.3,0.14,0.53,0.29,0.78,0.37c1.89,0.63,3.75,1.36,5.67,1.85c8.91,2.26,17.6,1.57,26.04-1.86
		c0.76-2.59,1.18-5.32,1.23-8.14C176.73,132.22,175.62,132.23,174.53,132.24z"/>
</g>
<path class="st1" d="M28.16,157.81l-1.46-2.67c-1.15,1.64-5.58,3.88-9.35,3.88c-9.47,0-14.87-5.95-14.87-11.41v-28.17
	c0-4.98,6.68-11.41,16.57-11.41c9.83,0,16.33,6.43,16.33,11.41v8.07H21.91v-6.68c0-1.28-1.21-2.06-2.85-2.06
	c-1.58,0-2.91,0.79-2.91,2.06v25.07c0,1.28,1.21,2.37,3.28,2.37c2.25,0,3.28-1.09,3.28-2.37v-4.8h-3.64v-7.65h16.69v24.34H28.16z"/>
<path class="st1" d="M39.82,157.81v-48.56h13.05v48.56H39.82z"/>
<path class="st1" d="M76.66,157.81H57.48v-48.56h19.18c6.25,0,11.53,3.34,11.53,9.47v8.07c0,2.31-1.7,5.04-5.04,6.31
	c3.34,1.27,5.04,3.94,5.04,6.25v8.98C88.19,154.47,82.91,157.81,76.66,157.81z M75.99,121.03c0-1.4-0.85-1.94-2.25-1.94h-3.22v9.83
	h3.22c1.4,0,2.25-0.55,2.25-1.88V121.03z M75.99,140.09c0-1.33-0.85-1.88-2.25-1.88h-3.22v9.83h3.22c1.4,0,2.25-0.55,2.25-1.94
	V140.09z"/>
<path class="st1" d="M92.2,157.81v-48.56h13.05v38.06h12.63v10.5H92.2z"/>
<path class="st1" d="M196.74,159.03c-9.17,0-16.09-5.4-16.09-12.02v-37.76h13.42v36.97c0,1.28,1.21,2.06,2.67,2.06
	c1.58,0,2.73-0.79,2.73-2.06v-36.97h12.87v37.76C212.34,153.62,205.97,159.03,196.74,159.03z"/>
<path class="st1" d="M239.84,132.26l10.02,25.55h-13.48L232.07,145l-4.92,12.81h-12.81l10.5-24.34l-9.77-24.22h13.42l4.19,12.81
	l4.74-12.81h12.81L239.84,132.26z"/>
<path class="st1" d="M28.16,157.81l-1.46-2.67c-1.15,1.64-5.58,3.88-9.35,3.88c-9.47,0-14.87-5.95-14.87-11.41v-28.17
	c0-4.98,6.68-11.41,16.57-11.41c9.83,0,16.33,6.43,16.33,11.41v8.07H21.91v-6.68c0-1.28-1.21-2.06-2.85-2.06
	c-1.58,0-2.91,0.79-2.91,2.06v25.07c0,1.28,1.21,2.37,3.28,2.37c2.25,0,3.28-1.09,3.28-2.37v-4.8h-3.64v-7.65h16.69v24.34H28.16z"/>
<path class="st1" d="M39.82,157.81v-48.56h13.05v48.56H39.82z"/>
<path class="st1" d="M76.66,157.81H57.48v-48.56h19.18c6.25,0,11.53,3.34,11.53,9.47v8.07c0,2.31-1.7,5.04-5.04,6.31
	c3.34,1.27,5.04,3.94,5.04,6.25v8.98C88.19,154.47,82.91,157.81,76.66,157.81z M75.99,121.03c0-1.4-0.85-1.94-2.25-1.94h-3.22v9.83
	h3.22c1.4,0,2.25-0.55,2.25-1.88V121.03z M75.99,140.09c0-1.33-0.85-1.88-2.25-1.88h-3.22v9.83h3.22c1.4,0,2.25-0.55,2.25-1.94
	V140.09z"/>
<path class="st1" d="M92.2,157.81v-48.56h13.05v38.06h12.63v10.5H92.2z"/>
<path class="st1" d="M196.74,159.03c-9.17,0-16.09-5.4-16.09-12.02v-37.76h13.42v36.97c0,1.28,1.21,2.06,2.67,2.06
	c1.58,0,2.73-0.79,2.73-2.06v-36.97h12.87v37.76C212.34,153.62,205.97,159.03,196.74,159.03z"/>
<g>
	<path class="st1" d="M65.35,211.92h-5.16l-4.53-45.32h5.21l2.04,27.02l2.21-27.02h4.82L65.35,211.92z"/>
	<path class="st1" d="M89.26,212.48c-3.68,0-6.74-3.17-6.74-7.76v-30.93c0-4.59,3.06-7.76,6.74-7.76c3.68,0,6.74,3.17,6.74,7.76
		v30.93C96,209.31,92.95,212.48,89.26,212.48z M90.62,173.39c0-1.02-0.51-1.64-1.36-1.64c-0.91,0-1.42,0.62-1.42,1.64v31.73
		c0,1.02,0.51,1.64,1.42,1.64c0.85,0,1.36-0.62,1.36-1.64V173.39z"/>
	<path class="st1" d="M109.66,211.92v-45.32h5.33v39.88h5.67v5.44H109.66z"/>
	<path class="st1" d="M133.69,211.92v-45.32h5.33v39.88h5.67v5.44H133.69z"/>
	<path class="st1" d="M157.72,211.92v-45.32h10.99v5.44h-5.72v13.82h3.85v5.44h-3.85v15.18h5.72v5.44H157.72z"/>
	<path class="st1" d="M190.69,191.8v20.11h-5.38V191.8l-4.48-25.21h5.1l2.38,16.82l2.21-16.82h4.82L190.69,191.8z"/>
</g>
<g>
	<path class="st1" d="M96.81,52.19c0.1-0.08,0.21-0.16,0.32-0.23c0.34-0.25,0.7-0.49,1.06-0.72c0.05-0.03,0.1-0.07,0.16-0.1
		c0.41-0.26,0.83-0.5,1.26-0.75c0.13-0.07,0.25-0.14,0.38-0.21c0.38-0.2,0.76-0.4,1.15-0.59c0.08-0.04,0.16-0.08,0.24-0.12
		c0.46-0.22,0.93-0.43,1.41-0.63c0.14-0.06,0.28-0.12,0.43-0.18c0.41-0.17,0.82-0.33,1.24-0.48c0.1-0.04,0.21-0.08,0.31-0.12
		c0.51-0.18,1.02-0.35,1.55-0.52c0.15-0.05,0.3-0.09,0.45-0.14c0.44-0.13,0.89-0.26,1.34-0.38c0.12-0.03,0.24-0.07,0.36-0.1
		c0.55-0.14,1.11-0.27,1.67-0.39c0.15-0.03,0.3-0.06,0.45-0.09c0.48-0.1,0.96-0.19,1.44-0.28c0.13-0.02,0.26-0.05,0.39-0.07
		c0.52-0.09,1.03-0.17,1.56-0.24c0.07-0.01,0.14-0.02,0.21-0.02c0.2-0.03,0.4-0.05,0.59-0.07c0.44-0.05,0.89-0.1,1.34-0.14
		c0.23-0.02,0.46-0.04,0.69-0.06c0.45-0.04,0.9-0.07,1.35-0.09c0.21-0.01,0.42-0.03,0.63-0.03c0.66-0.03,1.32-0.05,1.98-0.05
		c0.67-0.01,1.33,0,1.99,0.02c0.21,0.01,0.43,0.02,0.64,0.03c0.45,0.02,0.89,0.04,1.33,0.07c0.25,0.02,0.5,0.04,0.74,0.06
		c0.4,0.03,0.8,0.07,1.2,0.11c0.26,0.03,0.51,0.06,0.77,0.09c0.39,0.05,0.77,0.1,1.15,0.15c0.25,0.04,0.5,0.07,0.75,0.11
		c0.39,0.06,0.77,0.13,1.16,0.2c0.23,0.04,0.46,0.08,0.7,0.13c0.42,0.08,0.84,0.17,1.25,0.27c0.18,0.04,0.37,0.08,0.54,0.12
		c0.59,0.14,1.17,0.29,1.74,0.45c0.09,0.03,0.18,0.06,0.28,0.08c0.47,0.14,0.94,0.28,1.41,0.43c0.19,0.06,0.39,0.13,0.58,0.2
		c0.35,0.12,0.7,0.24,1.05,0.37c0.21,0.08,0.42,0.16,0.62,0.25c0.32,0.13,0.63,0.26,0.94,0.39c0.21,0.09,0.41,0.18,0.61,0.27
		c0.3,0.14,0.6,0.28,0.89,0.42c0.19,0.1,0.39,0.19,0.58,0.29c0.3,0.15,0.58,0.31,0.87,0.48c0.17,0.1,0.34,0.19,0.51,0.29
		c0.33,0.19,0.64,0.39,0.95,0.6c0.11,0.07,0.23,0.14,0.34,0.22c0.4,0.27,0.79,0.55,1.16,0.84c0.42-0.91,0.63-1.82,0.63-2.74
		c-0.02-3.07-2.58-6.17-7-8.53c-4.98-2.64-11.64-4.07-18.75-4.01c-13.91,0.11-25.61,6.04-25.55,12.95c0.01,1.04,0.29,2.07,0.85,3.08
		C96.06,52.75,96.43,52.47,96.81,52.19z"/>
	<path class="st1" d="M97.72,79.19c0.13-0.09,0.27-0.18,0.4-0.28c0.29-0.2,0.58-0.4,0.88-0.6c0.17-0.11,0.34-0.21,0.52-0.32
		c0.28-0.17,0.56-0.34,0.85-0.5c0.19-0.11,0.39-0.21,0.58-0.32c0.29-0.15,0.58-0.31,0.88-0.45c0.2-0.1,0.41-0.2,0.61-0.3
		c0.31-0.15,0.63-0.29,0.95-0.42c0.2-0.09,0.41-0.18,0.62-0.26c0.35-0.15,0.72-0.28,1.08-0.42c0.18-0.07,0.37-0.14,0.55-0.21
		c0.52-0.19,1.06-0.36,1.6-0.53c0.03-0.01,0.07-0.02,0.1-0.03c0.58-0.18,1.17-0.34,1.77-0.5c0.19-0.05,0.38-0.09,0.57-0.14
		c0.42-0.1,0.83-0.2,1.26-0.3c0.23-0.05,0.47-0.1,0.71-0.14c0.39-0.08,0.78-0.16,1.18-0.22c0.25-0.04,0.51-0.09,0.76-0.13
		c0.39-0.06,0.79-0.12,1.19-0.18c0.26-0.04,0.52-0.07,0.78-0.1c0.41-0.05,0.82-0.09,1.24-0.13c0.25-0.02,0.5-0.05,0.76-0.07
		c0.46-0.04,0.91-0.07,1.37-0.09c0.22-0.01,0.43-0.03,0.65-0.04c0.68-0.03,1.36-0.05,2.05-0.06c0.67-0.01,1.33,0,1.99,0.02
		c0.21,0.01,0.42,0.02,0.63,0.03c0.45,0.02,0.89,0.04,1.34,0.07c0.25,0.02,0.5,0.04,0.74,0.06c0.4,0.03,0.8,0.07,1.2,0.11
		c0.26,0.03,0.51,0.06,0.76,0.08c0.39,0.05,0.78,0.1,1.16,0.15c0.25,0.03,0.5,0.07,0.74,0.11c0.39,0.06,0.78,0.13,1.16,0.2
		c0.23,0.04,0.46,0.08,0.69,0.13c0.43,0.08,0.84,0.18,1.26,0.27c0.18,0.04,0.36,0.08,0.54,0.12c0.59,0.14,1.17,0.29,1.74,0.45
		c0.09,0.02,0.17,0.05,0.26,0.08c0.48,0.14,0.96,0.28,1.42,0.44c0.19,0.06,0.38,0.13,0.57,0.2c0.35,0.12,0.71,0.25,1.05,0.38
		c0.21,0.08,0.41,0.16,0.62,0.24c0.32,0.13,0.63,0.26,0.94,0.39c0.21,0.09,0.41,0.18,0.61,0.27c0.3,0.14,0.6,0.28,0.89,0.42
		c0.19,0.1,0.39,0.19,0.58,0.29c0.3,0.15,0.58,0.31,0.87,0.48c0.17,0.1,0.34,0.19,0.51,0.29c0.32,0.19,0.64,0.39,0.95,0.59
		c0.11,0.07,0.23,0.15,0.34,0.22c0.4,0.27,0.79,0.55,1.16,0.84c0.42-0.91,0.63-1.82,0.63-2.75c-0.01-1.8-0.86-3.57-2.5-5.26
		c-4.38-4.5-13.51-7.36-23.25-7.28c-10.01,0.08-19.19,3.19-23.39,7.92c-1.45,1.63-2.17,3.32-2.16,5.02
		c0.01,1.04,0.29,2.07,0.85,3.08C96.92,79.79,97.32,79.48,97.72,79.19z"/>
	<polygon class="st1" points="124.77,2.72 122.92,2.79 121.15,33.15 125.1,33.34 	"/>
	<path class="st1" d="M96.28,66.61c0.07-0.06,0.16-0.12,0.23-0.18c0.31-0.25,0.62-0.49,0.95-0.73c0.14-0.1,0.3-0.2,0.44-0.3
		c0.27-0.19,0.55-0.38,0.84-0.56c0.17-0.11,0.35-0.21,0.53-0.32c0.28-0.17,0.56-0.33,0.85-0.49c0.19-0.1,0.38-0.21,0.57-0.31
		c0.29-0.15,0.59-0.3,0.89-0.45c0.2-0.1,0.4-0.19,0.6-0.29c0.32-0.15,0.64-0.29,0.96-0.42c0.2-0.08,0.4-0.17,0.6-0.25
		c0.36-0.15,0.74-0.29,1.11-0.42c0.17-0.06,0.34-0.13,0.52-0.19c0.55-0.19,1.11-0.38,1.68-0.55c0.09-0.03,0.18-0.05,0.27-0.08
		c0.49-0.14,0.98-0.28,1.48-0.41c0.22-0.06,0.44-0.11,0.66-0.16c0.38-0.09,0.76-0.18,1.15-0.27c0.25-0.05,0.51-0.1,0.77-0.16
		c0.37-0.07,0.73-0.14,1.1-0.21c0.27-0.05,0.54-0.09,0.81-0.13c0.37-0.06,0.74-0.11,1.11-0.16c0.27-0.04,0.55-0.07,0.83-0.11
		c0.38-0.05,0.77-0.09,1.16-0.12c0.27-0.03,0.53-0.05,0.8-0.08c0.43-0.04,0.86-0.06,1.3-0.09c0.23-0.01,0.46-0.03,0.7-0.04
		c0.67-0.03,1.34-0.05,2.02-0.06c0.66-0.01,1.32,0,1.97,0.02c0.21,0.01,0.42,0.02,0.63,0.03c0.44,0.02,0.88,0.04,1.32,0.07
		c0.25,0.02,0.49,0.04,0.73,0.06c0.4,0.03,0.8,0.07,1.19,0.11c0.25,0.03,0.5,0.05,0.75,0.08c0.39,0.05,0.77,0.09,1.15,0.15
		c0.25,0.03,0.49,0.07,0.73,0.11c0.39,0.06,0.78,0.13,1.16,0.2c0.22,0.04,0.45,0.08,0.67,0.12c0.42,0.08,0.84,0.17,1.26,0.27
		c0.18,0.04,0.36,0.07,0.53,0.12c1.18,0.28,2.32,0.6,3.43,0.95c0.16,0.05,0.32,0.11,0.47,0.16c0.39,0.13,0.77,0.26,1.14,0.4
		c0.19,0.07,0.37,0.15,0.56,0.22c0.34,0.13,0.67,0.27,1,0.41c0.19,0.08,0.38,0.17,0.57,0.25c0.31,0.14,0.62,0.29,0.93,0.43
		c0.18,0.09,0.37,0.18,0.54,0.27c0.3,0.16,0.6,0.32,0.89,0.48c0.16,0.09,0.33,0.18,0.49,0.27c0.31,0.18,0.62,0.37,0.92,0.56
		c0.13,0.08,0.26,0.16,0.38,0.24c0.42,0.28,0.82,0.56,1.21,0.85c0.5-0.98,0.74-1.97,0.73-2.97c-0.01-1.75-0.82-3.48-2.38-5.13
		c-4.34-4.58-13.51-7.48-23.37-7.4c-10.13,0.08-19.36,3.24-23.51,8.06c-1.37,1.59-2.06,3.23-2.04,4.89c0.01,1.11,0.33,2.22,0.97,3.3
		C96.26,66.62,96.27,66.62,96.28,66.61z"/>
	<path class="st1" d="M104.31,84.19l2.67-1.26l1.44-0.66c3.75-1.4,8.11-2.18,12.71-2.21c4.59-0.04,8.97,0.67,12.74,2.01l0.79,0.41
		l3.34,1.44c0,0,0.01,0,0.01,0.01l1.12,0.64l0.01,0.05c1.15,0.75,2.16,1.57,2.99,2.45c1.95,2.06,3,4.45,3.02,6.9v0
		c0,0.43-0.03,0.86-0.09,1.28c1.54-1.66,2.38-3.45,2.37-5.25c-0.01-1.75-0.81-3.47-2.37-5.12l-0.01-0.01
		c-2.98-3.15-8.25-5.5-14.45-6.64c-2.82-0.52-5.84-0.79-8.92-0.76c-1.9,0.02-3.77,0.14-5.58,0.36c-7.84,0.96-14.56,3.79-17.93,7.7
		c-1.37,1.59-2.06,3.23-2.04,4.89c0.01,1.25,0.44,2.49,1.23,3.68c0.05-2.23,0.94-4.43,2.61-6.36c0.87-1.01,1.96-1.95,3.23-2.81
		l0.01-0.06L104.31,84.19C104.31,84.19,104.31,84.19,104.31,84.19z"/>
</g>
</svg>
